<?xml version="1.0" standalone="no"?>
<!DOCTYPE svg PUBLIC "-//W3C//DTD SVG 20010904//EN"
 "http://www.w3.org/TR/2001/REC-SVG-20010904/DTD/svg10.dtd">
<svg version="1.0" xmlns="http://www.w3.org/2000/svg"
 width="256.000000pt" height="256.000000pt" viewBox="0 0 256.000000 256.000000"
 preserveAspectRatio="xMidYMid meet">
<metadata>
Created by potrace 1.10, written by Peter Selinger 2001-2011
</metadata>
<g transform="translate(0.000000,256.000000) scale(0.100000,-0.100000)"
fill="#ffffff" stroke="none">
<path d="M612 1769 c-74 -14 -117 -40 -120 -73 -5 -43 8 -48 66 -26 56 22 151
27 183 10 28 -16 49 -63 49 -114 l0 -45 -32 10 c-18 5 -64 9 -103 9 -121 0
-195 -63 -195 -164 0 -97 61 -156 163 -156 62 0 105 16 149 57 25 24 26 24 32
5 4 -11 16 -28 27 -38 19 -17 21 -17 55 1 38 20 40 28 19 65 -11 18 -14 64
-15 175 0 124 -4 157 -19 191 -38 84 -133 118 -259 93z m171 -45 c59 -28 69
-57 74 -222 2 -81 9 -164 15 -185 17 -57 -5 -66 -48 -20 -31 33 -32 37 -19 56
19 27 19 74 0 111 -11 20 -12 33 -5 40 5 5 10 40 10 77 0 60 -3 70 -28 97 -47
50 -114 58 -232 26 -17 -5 -22 -4 -15 4 30 32 192 43 248 16z m-175 -234 c-48
-26 -68 -56 -68 -103 0 -62 27 -98 95 -124 l30 -11 -45 -1 c-82 -2 -130 45
-130 127 0 54 19 84 70 110 57 28 102 30 48 2z m160 -26 c18 -5 22 -13 22 -43
0 -73 -51 -120 -130 -124 -36 -1 -47 3 -71 31 -37 41 -37 76 0 113 26 26 36
29 93 29 35 0 73 -3 86 -6z"/>
<path d="M1804 1752 c-105 -50 -123 -170 -37 -241 19 -16 68 -38 108 -50 118
-35 151 -77 106 -132 -25 -31 -128 -39 -200 -15 -68 22 -71 21 -71 -19 0 -48
39 -67 148 -73 134 -7 221 43 237 136 14 85 -40 145 -160 181 -39 11 -81 30
-93 41 -31 30 -29 75 5 97 33 22 123 22 175 0 42 -18 48 -14 48 24 0 45 -37
62 -139 66 -69 3 -94 0 -127 -15z m189 -23 c52 -14 42 -21 -11 -7 -96 24 -192
-23 -192 -94 0 -52 45 -91 142 -124 104 -34 128 -57 128 -121 0 -60 -19 -89
-74 -114 -63 -29 -222 -20 -243 14 -4 7 0 8 13 3 99 -39 198 -28 246 26 35 39
36 77 3 116 -26 31 -43 39 -138 68 -32 9 -71 29 -88 45 -24 23 -29 35 -29 76
0 41 5 54 29 77 46 44 132 58 214 35z"/>
<path d="M947 1753 c-2 -5 30 -123 72 -263 l77 -255 45 -3 c29 -2 50 2 56 10
12 14 93 346 93 379 0 56 20 -2 59 -174 24 -105 49 -198 54 -205 7 -8 27 -12
56 -10 l46 3 82 250 c46 138 83 256 83 263 0 8 -15 12 -44 12 -24 0 -48 -6
-53 -12 -5 -7 -31 -98 -57 -203 -27 -104 -50 -197 -53 -205 -3 -8 -12 14 -19
50 -8 36 -31 133 -51 215 l-38 150 -44 3 c-24 2 -48 -1 -53 -6 -6 -6 -32 -102
-58 -214 -26 -111 -50 -196 -53 -188 -3 8 -26 100 -52 205 -25 104 -52 193
-58 197 -16 10 -85 10 -90 1z m683 -30 c0 -4 -32 -108 -72 -230 l-72 -223 -31
0 -32 0 -32 138 c-48 199 -61 243 -78 249 -29 11 -50 -32 -82 -172 -55 -235
-47 -217 -84 -213 l-32 3 -62 205 c-68 225 -71 243 -46 238 12 -2 28 -48 63
-186 26 -101 54 -190 63 -199 16 -17 53 -11 42 7 -3 5 -2 10 3 10 8 0 56 183
76 285 16 83 17 86 50 83 l30 -3 46 -181 c25 -100 53 -192 62 -205 l17 -24 19
21 c11 13 37 94 61 190 52 202 56 214 76 214 8 0 15 -3 15 -7z"/>
<path d="M1965 1100 c-77 -16 -142 -51 -130 -70 2 -3 28 -3 57 1 81 12 140 10
168 -4 21 -11 25 -19 22 -51 -2 -21 -16 -74 -32 -117 -16 -43 -25 -81 -20 -84
4 -3 29 18 54 45 47 54 79 124 90 202 6 42 5 48 -17 63 -29 19 -136 27 -192
15z m164 -39 c17 -11 11 -78 -11 -131 -14 -34 -14 -34 -10 31 4 62 3 67 -23
87 l-28 22 29 0 c16 0 35 -4 43 -9z"/>
<path d="M386 1062 c-12 -20 154 -144 280 -209 309 -160 697 -192 1024 -84 87
29 257 113 300 149 29 25 33 32 22 45 -11 13 -28 9 -140 -29 -459 -158 -928
-130 -1358 82 -119 58 -120 58 -128 46z m327 -163 c60 -22 166 -51 235 -66
113 -24 149 -27 332 -27 128 -1 233 4 280 12 94 17 283 66 333 87 61 25 42 8
-30 -28 -188 -93 -325 -127 -538 -134 -245 -8 -440 34 -642 136 -80 41 -140
80 -98 66 11 -4 69 -25 128 -46z"/>
</g>
</svg>
