<?xml version="1.0" standalone="no"?>
<!DOCTYPE svg PUBLIC "-//W3C//DTD SVG 20010904//EN"
 "http://www.w3.org/TR/2001/REC-SVG-20010904/DTD/svg10.dtd">
<svg version="1.0" xmlns="http://www.w3.org/2000/svg"
 width="900.000000pt" height="900.000000pt" viewBox="0 0 900.000000 900.000000"
 preserveAspectRatio="xMidYMid meet">
<metadata>
Created by potrace 1.10, written by Peter Selinger 2001-2011
</metadata>
<g transform="translate(0.000000,900.000000) scale(0.100000,-0.100000)"
fill="#ffffff" stroke="none">
<path d="M3069 7324 c-10 -11 -19 -23 -19 -27 0 -9 -55 -91 -107 -159 -24 -31
-43 -59 -43 -63 0 -4 -20 -33 -45 -65 -25 -32 -45 -61 -45 -65 0 -4 -20 -33
-45 -65 -25 -32 -45 -63 -45 -69 0 -6 -4 -11 -9 -11 -6 0 -16 -11 -23 -24 -7
-14 -40 -64 -73 -111 -33 -47 -64 -94 -70 -103 -5 -9 -36 -51 -67 -94 -32 -42
-58 -80 -58 -83 0 -4 -20 -33 -45 -65 -25 -32 -45 -61 -45 -65 0 -4 -20 -33
-45 -65 -25 -32 -45 -63 -45 -69 0 -6 -4 -11 -9 -11 -6 0 -16 -11 -23 -24 -7
-14 -40 -64 -73 -111 -33 -47 -64 -94 -70 -103 -5 -9 -36 -51 -67 -94 -32 -42
-58 -80 -58 -83 0 -4 -20 -33 -45 -65 -25 -32 -45 -61 -45 -65 0 -4 -20 -33
-45 -65 -25 -32 -45 -63 -45 -68 0 -6 -3 -12 -7 -14 -5 -1 -18 -17 -30 -34
-56 -81 -129 -187 -138 -202 -5 -9 -29 -42 -52 -74 -24 -31 -43 -61 -43 -66 0
-5 -7 -12 -15 -16 -8 -3 -15 -10 -15 -16 0 -5 -19 -37 -42 -69 -24 -33 -59
-83 -78 -111 -19 -28 -41 -58 -47 -65 -7 -7 -13 -16 -13 -20 0 -4 -19 -32 -43
-63 -23 -31 -51 -70 -62 -87 -10 -16 -31 -43 -47 -59 -26 -28 -38 -66 -20 -66
9 0 75 -88 85 -112 3 -10 11 -18 17 -18 5 0 10 -5 10 -11 0 -6 19 -36 42 -67
24 -32 48 -65 53 -74 6 -9 37 -56 70 -103 33 -47 66 -97 73 -111 7 -13 17 -24
23 -24 5 0 9 -5 9 -11 0 -6 20 -37 45 -69 25 -32 45 -61 45 -65 0 -4 20 -33
45 -65 25 -32 45 -61 45 -65 0 -4 20 -33 45 -65 25 -32 45 -61 45 -65 0 -4 19
-32 43 -63 56 -76 119 -167 135 -197 7 -14 17 -25 23 -25 5 0 9 -5 9 -11 0 -6
19 -36 43 -67 23 -32 47 -65 52 -74 9 -15 82 -121 138 -202 12 -17 25 -32 30
-34 4 -2 7 -8 7 -14 0 -5 19 -35 43 -66 56 -76 119 -167 135 -197 7 -14 17
-25 23 -25 5 0 9 -5 9 -11 0 -6 19 -36 43 -67 23 -32 47 -65 52 -74 12 -19 92
-136 132 -193 15 -22 31 -41 36 -43 4 -2 7 -10 7 -18 0 -8 5 -14 10 -14 6 0
13 -8 17 -17 3 -10 19 -34 35 -54 15 -20 28 -40 28 -44 0 -3 20 -33 45 -65 25
-32 45 -61 45 -65 0 -3 27 -42 60 -85 33 -43 60 -82 60 -85 0 -5 37 -59 60
-88 3 -4 645 -7 1425 -7 1303 0 1420 1 1437 17 10 9 18 20 18 26 0 5 14 26 30
47 16 21 30 43 30 49 0 6 5 11 10 11 6 0 13 8 17 18 3 9 18 33 32 52 14 19 31
43 36 52 6 9 51 75 100 148 50 72 95 139 100 148 6 9 22 33 38 53 15 20 27 40
27 44 0 3 20 33 45 65 25 32 45 63 45 68 0 6 3 12 8 14 11 5 52 66 52 78 0 5
4 10 9 10 6 0 16 11 23 24 7 14 54 84 103 156 50 72 97 142 105 155 8 13 42
63 75 110 33 48 65 94 70 103 6 10 12 19 15 22 15 15 50 71 50 80 0 5 4 10 9
10 6 0 16 11 23 25 7 13 54 83 103 155 50 72 95 139 100 148 6 9 22 33 38 53
15 20 27 40 27 44 0 3 20 33 45 65 25 32 45 63 45 68 0 6 3 12 8 14 11 5 52
66 52 78 0 5 4 10 9 10 6 0 16 11 23 25 7 13 54 83 103 155 50 72 95 139 100
148 6 9 56 78 113 153 56 75 102 142 102 148 0 17 -28 13 -48 -6 -10 -10 -29
-25 -42 -33 -12 -8 -33 -23 -45 -32 -13 -10 -28 -18 -34 -18 -6 0 -11 -4 -11
-9 0 -5 -13 -14 -30 -21 -16 -7 -30 -16 -30 -20 0 -4 -8 -10 -17 -14 -10 -3
-31 -15 -48 -26 -16 -11 -39 -24 -50 -30 -11 -6 -33 -19 -50 -30 -16 -11 -39
-24 -50 -30 -11 -6 -33 -19 -50 -30 -16 -11 -39 -24 -50 -29 -11 -5 -37 -21
-58 -35 -21 -14 -41 -26 -44 -26 -6 0 -175 -101 -183 -110 -3 -3 -16 -11 -30
-17 -34 -17 -96 -53 -148 -86 -23 -15 -59 -37 -80 -48 -20 -11 -50 -29 -67
-40 -16 -10 -39 -23 -50 -29 -11 -6 -33 -19 -50 -30 -16 -11 -39 -24 -50 -30
-11 -6 -33 -19 -50 -30 -16 -11 -39 -24 -50 -30 -11 -6 -33 -19 -50 -30 -16
-11 -39 -24 -50 -30 -11 -6 -33 -19 -50 -30 -16 -11 -39 -24 -50 -30 -11 -6
-33 -19 -50 -30 -16 -11 -39 -24 -50 -30 -11 -6 -33 -19 -50 -30 -16 -11 -39
-24 -50 -30 -11 -6 -33 -19 -50 -30 -16 -11 -39 -24 -50 -30 -11 -6 -33 -19
-50 -30 -16 -11 -39 -24 -50 -30 -11 -6 -33 -19 -50 -30 -16 -11 -39 -24 -50
-30 -11 -6 -33 -19 -50 -30 -16 -11 -42 -25 -57 -31 -16 -6 -28 -15 -28 -20 0
-5 -5 -9 -11 -9 -6 0 -31 -13 -56 -30 -24 -16 -47 -30 -50 -30 -4 0 -39 -20
-79 -45 -39 -25 -74 -45 -78 -45 -3 0 -35 -20 -72 -45 -36 -25 -69 -45 -73
-45 -5 0 -14 -6 -20 -14 -7 -8 -25 -18 -41 -21 -16 -4 -40 -17 -52 -31 -13
-13 -26 -24 -30 -24 -6 0 -102 -60 -123 -77 -5 -5 -21 -14 -35 -20 -34 -17
-97 -53 -148 -86 -23 -15 -59 -37 -80 -48 -20 -11 -50 -29 -67 -40 -16 -10
-37 -22 -45 -26 -8 -4 -33 -19 -55 -33 -73 -46 -80 -50 -105 -61 -14 -6 -38
-21 -55 -33 -16 -13 -40 -26 -52 -30 -13 -4 -23 -11 -23 -16 0 -4 -8 -10 -17
-14 -10 -3 -31 -15 -48 -26 -16 -11 -42 -25 -57 -31 -16 -6 -28 -15 -28 -19 0
-4 -11 -11 -25 -14 -14 -4 -25 -11 -25 -16 0 -6 -5 -10 -11 -10 -14 0 -183
-101 -187 -112 -2 -4 -8 -8 -14 -8 -5 0 -77 -40 -160 -90 -82 -49 -151 -90
-153 -90 -2 0 -23 -13 -47 -29 -24 -16 -61 -39 -83 -51 -22 -12 -60 -33 -85
-47 -90 -51 -159 -83 -178 -83 -21 0 -44 28 -57 70 -4 14 -19 36 -32 50 -38
39 -93 111 -93 122 0 5 -16 28 -35 51 -19 22 -45 61 -58 86 -12 25 -41 71 -63
101 -46 65 -57 79 -129 185 -30 44 -74 107 -99 140 -25 33 -45 65 -45 71 -1 7
-8 14 -16 17 -8 4 -25 28 -39 55 -14 27 -39 65 -57 83 -32 35 -144 202 -174
259 -9 18 -34 51 -56 75 -21 23 -46 59 -54 79 -17 40 -111 166 -125 166 -4 0
-36 48 -71 107 -34 60 -73 121 -86 136 -13 16 -23 35 -23 43 0 8 -11 19 -25
24 -14 5 -31 25 -40 47 -9 21 -24 47 -34 58 -10 11 -27 36 -37 55 -10 19 -26
44 -36 55 -16 19 -18 24 -18 44 0 5 -9 11 -19 14 -11 2 -27 20 -37 38 -9 19
-27 47 -40 62 -13 16 -24 32 -24 37 0 4 -15 24 -34 44 -18 20 -45 61 -61 91
-15 30 -34 60 -42 67 -9 7 -27 31 -41 53 -13 22 -59 72 -101 112 -41 39 -72
75 -68 80 12 12 593 18 1727 18 785 0 1010 -3 1027 -12 26 -15 27 -15 98 86
28 39 78 109 113 155 34 47 62 88 62 91 0 4 27 42 60 85 33 43 60 83 60 88 0
6 7 12 15 16 8 3 15 10 15 16 0 7 20 38 45 70 25 32 45 63 45 70 0 6 7 13 15
16 8 4 15 12 15 19 0 7 7 15 15 19 8 3 15 10 15 16 0 7 20 37 43 68 24 31 46
62 48 68 2 6 14 24 26 40 55 70 123 164 123 168 0 3 34 52 75 108 168 230 258
358 286 406 18 31 48 41 63 21 12 -15 62 -51 86 -62 8 -4 29 -16 45 -27 17
-11 39 -24 50 -30 11 -6 34 -19 50 -30 17 -11 39 -24 50 -30 11 -6 34 -19 50
-30 17 -11 39 -24 50 -30 11 -6 34 -19 50 -30 17 -11 39 -24 50 -30 11 -6 34
-19 50 -30 17 -11 39 -24 50 -30 11 -6 34 -19 50 -30 17 -11 39 -24 50 -30 11
-6 34 -19 50 -30 17 -11 39 -24 50 -30 11 -6 34 -19 50 -30 17 -11 37 -23 45
-27 8 -3 33 -18 55 -32 59 -38 78 -49 95 -58 8 -4 92 -53 186 -110 95 -57 177
-103 183 -103 6 0 11 -4 11 -9 0 -5 10 -13 22 -17 12 -3 39 -19 61 -35 22 -16
46 -29 54 -29 7 0 13 -4 13 -9 0 -5 12 -14 28 -20 15 -6 41 -20 57 -31 17 -11
39 -24 50 -30 11 -6 34 -19 50 -30 17 -11 39 -24 50 -30 11 -6 34 -19 50 -30
17 -11 39 -24 50 -30 11 -6 34 -19 50 -30 17 -11 39 -24 50 -30 11 -6 34 -19
50 -30 17 -11 37 -23 45 -27 8 -3 33 -18 55 -32 60 -38 78 -49 95 -57 8 -4 33
-19 55 -33 56 -36 77 -49 100 -61 11 -6 34 -19 50 -30 17 -11 37 -23 45 -27 8
-4 43 -26 77 -49 80 -55 103 -62 103 -35 0 12 -4 21 -9 21 -5 0 -20 17 -32 38
-13 20 -34 48 -47 62 -13 14 -28 34 -33 45 -5 11 -38 61 -74 110 -36 50 -69
100 -75 113 -5 12 -14 22 -20 22 -5 0 -10 5 -10 10 0 10 -37 67 -51 80 -3 3
-16 23 -29 45 -13 22 -26 42 -29 45 -7 5 -77 107 -101 145 -52 83 -196 291
-202 293 -4 2 -8 8 -8 13 0 6 -16 31 -35 57 -47 63 -49 66 -60 84 -5 9 -37 56
-70 103 -33 48 -64 94 -70 103 -5 10 -21 33 -35 52 -14 19 -29 42 -35 52 -5 9
-50 76 -100 148 -49 72 -96 142 -103 156 -7 13 -17 24 -23 24 -5 0 -9 5 -9 10
0 12 -41 73 -52 78 -5 2 -8 8 -8 14 0 5 -20 36 -45 68 -25 32 -45 62 -45 65 0
4 -12 24 -27 44 -16 20 -32 44 -38 53 -27 45 -130 193 -137 196 -5 2 -8 8 -8
14 0 6 -13 27 -28 47 -16 20 -32 44 -35 54 -4 9 -11 17 -17 17 -5 0 -10 5 -10
10 0 12 -41 73 -52 78 -5 2 -8 8 -8 14 0 6 -13 27 -30 48 -16 21 -30 41 -30
45 0 4 -13 24 -30 45 -16 21 -30 42 -30 47 0 6 -8 17 -18 26 -17 15 -137 17
-1436 19 l-1417 3 -20 -21z m431 -60 c144 -4 749 -4 1735 -1 l611 2 46 -38
c45 -37 90 -95 151 -196 16 -25 39 -57 51 -71 30 -34 76 -104 76 -116 0 -5 15
-25 33 -45 18 -19 48 -60 66 -90 74 -117 100 -155 120 -173 12 -11 21 -24 21
-30 0 -6 13 -27 29 -46 15 -19 40 -58 54 -87 15 -29 34 -56 43 -61 8 -5 21
-18 27 -29 34 -58 100 -156 163 -243 40 -54 75 -107 79 -119 3 -11 15 -25 25
-31 10 -5 24 -26 30 -45 6 -19 16 -35 21 -35 5 0 18 -19 30 -42 12 -24 35 -56
52 -73 16 -16 36 -43 43 -60 8 -16 34 -57 59 -90 24 -33 65 -90 90 -127 25
-37 50 -70 55 -73 6 -4 10 -13 10 -22 0 -9 10 -26 23 -38 12 -12 30 -35 39
-51 26 -43 39 -64 78 -118 19 -27 44 -64 55 -82 11 -18 38 -56 60 -86 51 -66
85 -124 85 -144 0 -28 -29 -26 -75 5 -26 17 -61 38 -78 47 -18 8 -61 32 -97
54 -36 21 -86 50 -111 64 -25 13 -51 32 -58 40 -8 9 -18 16 -23 16 -5 0 -28
13 -51 28 -23 16 -56 34 -74 41 -18 7 -38 20 -45 28 -6 8 -37 28 -67 44 -59
31 -113 63 -152 90 -13 9 -64 40 -114 69 -49 30 -96 60 -103 67 -7 7 -22 13
-31 13 -10 0 -24 7 -31 16 -8 8 -45 33 -84 56 -80 45 -197 115 -232 138 -12 8
-68 42 -124 75 -55 33 -124 74 -153 92 -29 18 -63 38 -77 45 -14 7 -46 27 -72
45 -26 18 -62 39 -80 47 -45 21 -96 51 -116 69 -9 8 -46 31 -82 51 -76 43 -91
52 -145 85 -35 21 -51 24 -125 23 -71 -1 -94 3 -137 24 -28 13 -55 29 -58 34
-3 6 -17 10 -30 10 -12 0 -25 6 -28 13 -2 7 -24 23 -48 35 -24 13 -57 32 -74
42 -16 11 -39 24 -50 30 -36 18 -60 35 -68 48 -4 6 -17 12 -27 12 -10 0 -21 4
-25 9 -3 6 -27 20 -53 33 -26 13 -53 29 -60 36 -7 6 -18 12 -23 12 -13 0 -11
-17 4 -24 6 -3 24 -14 39 -24 68 -44 174 -109 211 -130 23 -13 49 -30 58 -38
8 -8 22 -14 30 -14 8 0 22 -9 32 -20 9 -11 24 -20 33 -20 16 0 102 -56 116
-75 4 -5 8 -22 8 -36 0 -23 -21 -57 -113 -179 -18 -25 -48 -69 -67 -97 -18
-29 -37 -53 -41 -53 -4 0 -25 -28 -47 -62 -40 -62 -110 -162 -204 -289 -25
-35 -66 -92 -90 -127 -73 -106 -165 -235 -191 -267 -14 -17 -35 -48 -48 -70
-12 -22 -37 -56 -55 -77 -18 -20 -38 -46 -44 -59 -7 -12 -31 -46 -54 -74 -22
-28 -61 -83 -86 -122 -25 -38 -56 -76 -70 -84 -21 -13 -113 -14 -615 -12 -508
3 -1299 10 -1330 12 -5 0 -46 0 -90 0 -44 -1 -118 0 -165 0 -47 1 -125 1 -175
1 -101 -2 -192 3 -200 11 -8 9 16 72 35 94 10 11 25 36 34 55 9 19 28 53 44
76 15 22 38 57 50 77 13 20 27 37 31 37 7 0 61 75 87 121 6 11 20 30 31 42 11
12 25 36 32 54 7 18 22 35 32 38 10 4 19 12 19 20 0 7 6 20 13 27 7 7 26 36
42 63 15 28 42 64 58 82 31 33 46 57 71 109 8 17 22 36 30 43 8 7 29 37 46 68
17 30 45 69 61 86 17 18 40 48 52 68 12 20 31 50 42 69 11 18 38 55 61 84 46
57 166 234 204 301 14 24 35 55 47 67 12 13 31 42 43 66 12 23 35 51 51 63 16
11 29 26 29 33 0 7 13 29 29 49 15 20 34 50 41 67 7 16 16 30 20 30 4 0 18 17
32 38 73 110 116 179 122 199 4 12 16 25 26 28 10 3 37 40 59 81 23 42 63 101
90 132 27 31 56 72 65 90 9 17 22 32 30 32 7 0 18 11 24 25 14 31 56 42 96 26
17 -7 42 -15 56 -18 14 -3 32 -11 40 -18 8 -7 36 -22 63 -33 26 -12 47 -25 47
-31 0 -11 113 -71 133 -71 7 0 28 -13 47 -30 19 -16 40 -29 47 -30 6 0 24 -11
40 -24 15 -13 49 -33 76 -45 26 -12 47 -26 47 -31 0 -5 10 -12 23 -16 12 -4
51 -26 87 -49 127 -82 150 -95 170 -95 25 0 26 15 3 24 -10 3 -31 15 -48 26
-16 11 -40 24 -52 29 -11 5 -24 15 -28 20 -3 6 -15 11 -26 11 -10 0 -19 5 -19
10 0 6 -10 15 -22 20 -13 6 -30 14 -38 19 -8 5 -22 12 -30 16 -25 10 -62 33
-69 42 -11 15 -60 43 -75 43 -8 0 -19 6 -23 13 -4 7 -27 21 -50 31 -23 10 -44
25 -47 32 -3 8 -14 14 -25 14 -11 0 -24 6 -28 13 -4 7 -29 24 -55 36 -27 13
-48 27 -48 32 0 5 -7 9 -17 9 -9 0 -23 7 -32 15 -9 9 -42 34 -73 57 -32 23
-58 46 -58 51 0 6 26 7 73 2 39 -5 133 -10 207 -11z m3960 -3174 c0 -28 -192
-332 -259 -411 -17 -20 -31 -41 -31 -47 0 -6 -13 -26 -28 -44 -16 -18 -38 -51
-51 -73 -13 -22 -36 -58 -52 -80 -16 -22 -58 -83 -94 -135 -35 -52 -101 -149
-146 -215 -45 -66 -94 -133 -109 -150 -15 -16 -30 -37 -33 -45 -11 -26 -91
-146 -120 -181 -15 -19 -42 -56 -59 -84 -17 -27 -63 -97 -102 -155 -38 -58
-95 -143 -126 -190 -32 -47 -64 -91 -74 -99 -9 -7 -16 -19 -16 -27 0 -7 -13
-28 -28 -46 -15 -18 -44 -58 -64 -89 -20 -30 -44 -61 -52 -68 -9 -8 -16 -19
-16 -27 0 -7 -13 -28 -28 -46 -16 -18 -37 -48 -48 -66 -28 -48 -77 -74 -138
-72 -28 2 -53 2 -56 1 -3 -2 -174 -2 -380 -2 -206 1 -422 0 -480 -1 -58 -1
-127 -2 -155 -1 -27 0 -243 1 -480 1 -236 0 -467 1 -513 1 -45 0 -90 4 -99 10
-11 6 -23 5 -34 -2 -13 -8 -25 -8 -44 1 -14 7 -37 12 -51 12 -29 0 -28 23 1
28 10 2 33 19 52 38 18 19 38 34 44 34 6 0 28 13 48 29 32 26 103 67 186 110
17 8 51 30 76 48 26 18 62 38 80 44 19 6 50 24 69 39 19 15 73 48 120 75 47
26 114 67 150 90 36 23 80 50 98 59 18 9 42 26 53 37 10 10 27 19 37 19 11 0
32 11 48 25 16 14 48 34 72 45 23 10 42 23 42 29 0 5 21 17 48 27 26 10 54 23
63 31 8 7 18 13 22 13 4 0 26 13 49 29 24 15 77 48 118 72 41 24 90 54 109 66
19 13 46 23 60 23 14 0 44 9 66 19 22 11 47 23 55 26 8 3 40 21 70 40 30 19
74 44 97 55 23 12 47 28 54 36 6 8 16 14 22 14 9 0 72 38 163 100 23 15 52 31
65 35 13 4 40 20 59 35 19 15 60 40 90 56 30 16 80 46 110 66 30 21 60 38 67
38 6 0 24 10 40 23 34 28 177 114 263 159 14 7 43 25 64 40 21 16 44 28 51 28
6 0 40 20 75 45 35 25 68 45 73 45 5 0 32 15 60 33 29 19 74 48 101 65 27 18
54 32 59 32 5 0 26 13 46 29 20 16 52 35 72 44 20 8 57 31 82 50 26 20 57 39
69 43 13 4 68 35 123 69 152 94 225 125 225 95z"/>
<path d="M4110 6690 c0 -11 53 -40 75 -40 8 0 15 5 15 10 0 6 -6 10 -14 10 -7
0 -19 7 -26 15 -14 17 -50 20 -50 5z"/>
<path d="M4210 6634 c0 -20 24 -44 43 -42 12 0 28 -1 36 -3 7 -2 16 2 18 9 3
7 -5 12 -20 12 -14 0 -27 7 -31 15 -5 14 -46 22 -46 9z"/>
<path d="M4320 6565 c7 -8 18 -15 24 -15 7 0 28 -13 46 -30 33 -30 70 -40 70
-19 0 5 -13 15 -30 20 -16 6 -30 15 -30 20 0 5 -6 9 -14 9 -8 0 -16 7 -20 15
-3 8 -17 15 -32 15 -22 0 -25 -2 -14 -15z"/>
<path d="M3964 4444 c-8 -32 58 -162 123 -242 24 -29 43 -56 43 -60 0 -5 20
-32 45 -61 25 -29 45 -58 45 -65 0 -14 68 -108 138 -190 28 -32 65 -85 82
-117 17 -33 35 -59 40 -59 4 0 20 -21 36 -47 15 -27 50 -77 78 -112 28 -36 56
-72 61 -82 37 -62 97 -149 138 -202 27 -34 54 -71 60 -82 24 -47 130 -176 169
-208 46 -37 88 -55 88 -38 0 17 -33 81 -42 81 -4 0 -8 5 -8 10 0 6 -21 40 -47
75 -27 36 -68 94 -93 130 -25 37 -57 81 -72 98 -15 18 -28 36 -28 40 0 5 -19
34 -43 65 -24 31 -46 65 -50 75 -3 9 -11 17 -17 17 -5 0 -10 5 -10 11 0 5 -26
45 -58 87 -33 42 -61 82 -63 88 -2 6 -31 48 -64 93 -33 45 -93 127 -132 182
-40 54 -73 102 -73 105 0 3 -19 31 -43 62 -24 31 -46 65 -50 75 -3 9 -11 17
-17 17 -5 0 -10 7 -10 15 0 7 -6 18 -12 22 -7 4 -17 16 -23 25 -55 92 -157
218 -177 218 -4 0 -11 -12 -14 -26z"/>
</g>
</svg>
