<?xml version="1.0" standalone="no"?>
<!DOCTYPE svg PUBLIC "-//W3C//DTD SVG 20010904//EN"
 "http://www.w3.org/TR/2001/REC-SVG-20010904/DTD/svg10.dtd">
<svg version="1.0" xmlns="http://www.w3.org/2000/svg"
 width="300.000000pt" height="300.000000pt" viewBox="0 0 300.000000 300.000000"
 preserveAspectRatio="xMidYMid meet">
<metadata>
Created by potrace 1.10, written by Peter Selinger 2001-2011
</metadata>
<g transform="translate(0.000000,300.000000) scale(0.100000,-0.100000)"
fill="#ffffff" stroke="none">
<path d="M1652 2959 c-42 -27 -62 -67 -62 -123 0 -87 93 -153 178 -128 116 35
138 189 37 252 -43 27 -110 26 -153 -1z m155 -35 c18 -14 34 -33 34 -42 1 -9
2 -28 3 -42 4 -67 -56 -116 -130 -107 -72 8 -113 62 -100 132 17 88 116 118
193 59z"/>
<path d="M952 2883 c-87 -43 -101 -157 -27 -222 62 -54 143 -51 200 9 22 23
29 42 33 83 4 47 1 57 -23 85 -52 62 -117 78 -183 45z m121 -23 c80 -40 84
-148 6 -194 -74 -44 -167 1 -176 85 -5 43 -3 49 31 82 23 23 47 37 68 39 41 4
37 5 71 -12z"/>
<path d="M1344 2809 c-18 -5 -46 -25 -63 -44 -58 -66 -35 -172 44 -209 61 -29
120 -17 167 33 32 34 38 47 38 83 0 99 -91 166 -186 137z m121 -51 c72 -67 38
-181 -55 -188 -55 -5 -73 1 -106 34 -36 36 -44 78 -23 118 41 76 124 92 184
36z"/>
<path d="M1941 2713 c-67 -33 -94 -110 -61 -178 38 -78 136 -106 207 -60 62
41 80 126 40 186 -42 63 -119 85 -186 52z m141 -35 c36 -25 44 -51 39 -122 -1
-7 -15 -28 -33 -45 -66 -64 -180 -28 -195 61 -8 50 11 90 52 114 42 24 97 21
137 -8z"/>
<path d="M2322 2690 c-34 -15 -47 -29 -63 -66 -72 -163 158 -274 251 -122 40
67 14 150 -60 189 -44 24 -74 24 -128 -1z m141 -36 c34 -25 47 -63 37 -107
-10 -46 -16 -54 -52 -73 -38 -19 -98 -20 -128 -2 -59 36 -64 133 -9 181 28 26
38 29 79 25 26 -3 59 -13 73 -24z"/>
<path d="M790 2559 c-14 -6 -37 -22 -52 -36 -93 -89 -29 -233 103 -233 149 0
192 199 56 260 -47 22 -70 24 -107 9z m131 -55 c24 -23 29 -36 29 -75 0 -55
-25 -93 -73 -108 -113 -37 -206 89 -129 175 34 39 46 44 100 40 31 -3 52 -12
73 -32z"/>
<path d="M1101 2471 c-28 -28 -34 -60 -29 -143 13 -177 204 -396 409 -468 89
-31 233 -38 319 -15 240 62 449 252 450 407 0 60 -7 76 -41 93 -36 19 -108 19
-272 -1 -221 -27 -317 -13 -562 84 -165 65 -240 77 -274 43z m134 -17 c11 -3
52 -18 90 -34 39 -16 110 -42 160 -59 49 -17 94 -36 100 -42 6 -7 6 -9 0 -8
-39 10 -133 -71 -161 -137 -19 -46 -17 -121 5 -171 20 -44 91 -119 119 -126 9
-3 0 -3 -21 0 -81 8 -238 109 -313 201 -26 31 -63 90 -82 131 -31 65 -36 84
-35 149 0 66 2 77 23 94 23 18 54 19 115 2z m943 -123 c1 -1 5 -1 10 -2 21 -2
42 -35 42 -68 0 -112 -145 -275 -310 -349 -84 -38 -240 -72 -240 -52 0 6 4 9
8 6 4 -2 30 7 57 20 83 42 124 103 132 194 5 47 1 64 -20 107 -14 28 -39 61
-54 74 -40 34 -39 44 5 45 20 0 55 3 77 7 22 3 74 9 115 12 41 3 76 7 78 9 2
3 90 0 100 -3z m-419 -68 c106 -66 130 -207 49 -299 -105 -119 -286 -98 -354
43 -22 45 -26 62 -21 106 9 71 48 125 117 160 70 36 139 33 209 -10z m-101
-410 c-10 -2 -26 -2 -35 0 -10 3 -2 5 17 5 19 0 27 -2 18 -5z"/>
<path d="M338 2451 c-44 -39 -62 -80 -54 -125 25 -135 208 -158 270 -33 24 50
15 98 -28 145 -30 32 -40 36 -93 40 -56 4 -62 2 -95 -27z m174 -30 c19 -21 28
-42 28 -66 0 -43 -17 -88 -30 -80 -6 4 -9 1 -8 -6 2 -7 -15 -20 -38 -28 -107
-38 -193 69 -134 167 25 41 53 53 110 48 34 -3 51 -11 72 -35z"/>
<path d="M2405 2296 c-87 -38 -114 -143 -54 -211 59 -66 159 -69 213 -5 61 74
37 180 -50 216 -41 17 -70 17 -109 0z m141 -51 c21 -20 36 -77 25 -88 -5 -5
-7 -16 -4 -23 3 -8 0 -14 -6 -14 -6 0 -11 -7 -11 -16 0 -19 -61 -45 -103 -42
-41 2 -69 16 -61 30 4 6 3 8 -3 5 -16 -10 -36 20 -30 43 3 12 1 18 -5 14 -6
-4 -7 8 -4 31 7 45 14 57 27 50 5 -4 9 1 9 9 0 48 118 49 166 1z"/>
<path d="M672 2174 c-7 -3 -19 -19 -27 -35 -13 -23 -15 -73 -13 -281 3 -294 5
-287 -109 -531 -77 -167 -88 -220 -50 -255 57 -53 194 -45 327 20 68 33 102
58 170 127 199 200 235 418 112 671 -45 92 -170 224 -246 260 -48 23 -137 36
-164 24z m166 -51 c25 -14 40 -29 36 -35 -5 -7 -2 -8 5 -3 9 5 35 -16 77 -59
72 -73 132 -184 160 -296 20 -79 14 -199 -14 -277 -22 -62 -77 -153 -92 -153
-5 0 -9 -4 -7 -8 7 -23 -170 -171 -195 -164 -5 1 -8 -3 -8 -8 0 -6 -6 -10 -13
-10 -7 0 -31 -10 -52 -22 -53 -28 -212 -33 -238 -6 -32 32 -27 70 31 198 13
30 28 64 33 75 5 11 13 27 18 35 14 24 28 60 57 150 31 95 36 184 21 419 -8
141 0 187 36 193 43 7 103 -5 145 -29z"/>
<path d="M365 2113 c-65 -17 -110 -82 -102 -150 14 -128 189 -167 257 -58 32
51 27 116 -11 159 -17 20 -47 40 -67 46 -39 10 -45 11 -77 3z m88 -38 c8 -8
17 -11 21 -8 3 4 6 -1 6 -10 0 -10 6 -16 13 -14 6 1 11 -6 11 -15 -1 -10 2
-18 7 -18 17 0 9 -67 -11 -92 -11 -14 -36 -33 -56 -43 -74 -35 -159 19 -159
100 0 38 5 49 38 80 29 28 45 35 76 35 22 0 46 -7 54 -15z"/>
<path d="M2698 2053 c-33 -21 -68 -82 -68 -119 0 -39 33 -90 72 -114 114 -70
261 54 201 170 -37 72 -139 104 -205 63z m119 -15 c33 -15 53 -33 53 -47 0 -6
4 -11 9 -11 13 0 7 -81 -7 -107 -15 -27 -62 -53 -96 -53 -35 0 -76 20 -76 37
0 8 -5 11 -10 8 -6 -4 -17 10 -26 30 -19 47 -5 95 39 130 35 27 71 31 114 13z"/>
<path d="M2301 1904 c-170 -46 -348 -205 -418 -374 -21 -53 -27 -85 -31 -170
-3 -91 0 -115 21 -182 36 -111 91 -204 167 -279 81 -80 159 -121 231 -122 45
-1 55 3 77 28 l25 30 -8 180 c-14 315 -8 352 106 604 78 171 90 218 66 254
-29 45 -133 59 -236 31z m192 -29 c14 -9 28 -23 31 -31 8 -21 -26 -116 -85
-243 -100 -211 -116 -309 -95 -603 13 -181 -3 -210 -107 -194 -47 8 -134 61
-187 115 -52 53 -82 99 -74 112 4 7 3 9 -4 6 -13 -9 -68 108 -89 188 -17 66
-14 191 7 259 9 30 14 36 22 25 7 -10 8 -8 3 9 -4 14 0 32 12 50 10 15 25 40
33 55 8 15 33 46 57 68 23 21 40 39 37 39 -4 0 16 18 42 40 126 105 320 156
397 105z"/>
<path d="M102 1843 c-36 -7 -92 -66 -94 -99 -4 -85 12 -122 65 -154 90 -55
210 14 210 122 0 83 -91 150 -181 131z m125 -56 c33 -33 41 -95 17 -136 -25
-43 -90 -67 -137 -52 -63 21 -106 89 -85 136 6 14 15 25 20 25 4 0 8 6 8 13 0
7 12 20 28 30 39 24 117 17 149 -16z"/>
<path d="M2613 1690 c-89 -54 -82 -190 12 -234 50 -24 117 -17 152 15 53 50
66 105 37 165 -33 69 -133 96 -201 54z m151 -34 c31 -29 36 -40 36 -78 0 -55
-26 -92 -75 -108 -76 -25 -155 32 -155 112 0 31 28 76 58 92 48 27 96 20 136
-18z"/>
<path d="M253 1501 c-129 -59 -98 -239 45 -258 121 -16 201 130 121 221 -26
31 -79 56 -114 56 -5 0 -29 -9 -52 -19z m117 -26 c33 -17 60 -61 60 -97 0 -31
-24 -74 -39 -70 -7 1 -10 -2 -6 -7 15 -26 -78 -41 -129 -21 -52 19 -76 90 -50
146 28 60 101 81 164 49z"/>
<path d="M2822 1380 c-45 -10 -90 -55 -103 -102 -8 -32 -6 -46 10 -83 27 -62
70 -87 139 -82 45 3 59 9 89 39 31 31 35 41 35 91 1 64 -17 99 -60 120 -40 21
-73 25 -110 17z m98 -37 c15 -9 37 -34 49 -56 l21 -39 -23 -42 c-43 -78 -124
-96 -191 -42 -21 18 -29 34 -33 67 -4 42 13 93 30 90 4 0 16 8 27 19 25 25 81
26 120 3z"/>
<path d="M162 1140 c-53 -24 -88 -90 -77 -146 8 -43 63 -100 105 -109 127 -28
226 110 154 214 -18 25 -87 61 -119 61 -11 0 -39 -9 -63 -20z m144 -46 c16
-21 32 -46 35 -58 7 -26 -5 -71 -24 -90 -20 -21 -87 -47 -87 -35 0 6 -5 7 -11
4 -15 -10 -52 2 -78 24 -31 27 -39 96 -16 140 9 18 19 30 22 27 3 -3 12 1 20
9 9 9 34 15 62 15 43 0 50 -4 77 -36z"/>
<path d="M1225 1126 c-142 -40 -255 -106 -341 -199 -117 -126 -149 -269 -67
-306 33 -15 146 -13 273 4 216 30 304 17 567 -81 95 -35 188 -64 206 -64 154
0 117 278 -62 460 -77 79 -155 131 -249 167 -83 32 -247 41 -327 19z m284 -31
c226 -70 417 -282 422 -467 1 -47 -3 -74 -14 -91 -30 -47 -39 -45 -342 63 -60
22 -71 25 -90 30 -5 1 -30 9 -55 16 -43 13 -290 21 -308 10 -20 -12 -248 -28
-283 -19 -12 3 -27 19 -34 35 -33 79 43 210 191 327 44 35 177 89 264 107 13
3 26 7 28 9 10 10 173 -5 221 -20z"/>
<path d="M2561 1110 c-18 -5 -47 -22 -64 -38 -40 -40 -49 -120 -19 -168 47
-74 156 -84 220 -21 100 100 5 259 -137 227z m98 -37 c50 -29 68 -97 39 -150
-6 -13 -18 -23 -25 -23 -8 0 -12 -4 -9 -9 3 -5 -8 -14 -25 -21 -35 -15 -106
-2 -102 18 2 6 -4 9 -11 6 -18 -7 -46 44 -46 81 0 88 100 142 179 98z"/>
<path d="M490 943 c-23 -9 -60 -45 -76 -75 -58 -113 91 -237 203 -168 61 36
85 130 49 185 -34 52 -117 80 -176 58z m113 -33 c19 -11 39 -32 45 -46 15 -31
16 -88 2 -79 -5 3 -7 0 -5 -8 9 -21 -39 -65 -78 -72 -38 -7 -111 20 -109 40 0
6 -6 14 -14 18 -23 13 -19 100 6 122 53 48 101 56 153 25z"/>
<path d="M2513 730 c-32 -14 -48 -30 -64 -63 -29 -59 -20 -109 27 -153 125
-119 314 36 214 176 -19 27 -84 60 -118 60 -9 0 -36 -9 -59 -20z m127 -27 c45
-26 64 -98 38 -146 -39 -75 -127 -83 -195 -18 -31 30 -31 98 -1 136 41 52 98
62 158 28z"/>
<path d="M2112 689 c-42 -27 -62 -67 -62 -123 0 -36 6 -52 31 -81 61 -70 157
-70 218 0 57 65 35 172 -42 208 -48 23 -105 21 -145 -4z m153 -33 c56 -43 54
-134 -4 -173 -88 -60 -203 6 -186 107 7 43 38 77 81 90 41 11 71 5 109 -24z"/>
<path d="M552 521 c-80 -37 -103 -143 -46 -210 84 -101 254 -40 254 91 0 100
-112 163 -208 119z m113 -17 c31 -8 70 -71 68 -111 -3 -62 -58 -114 -116 -107
-12 1 -29 3 -38 3 -8 1 -29 14 -45 30 -24 23 -31 40 -33 76 -2 41 2 50 33 81
34 34 75 43 131 28z"/>
<path d="M919 507 c-74 -49 -86 -135 -28 -202 87 -99 249 -39 249 92 0 104
-132 170 -221 110z m132 -17 c47 -24 75 -74 65 -115 -4 -15 -21 -41 -39 -59
-74 -75 -203 -21 -196 81 4 50 32 90 72 102 47 14 54 13 98 -9z"/>
<path d="M1582 470 c-87 -20 -130 -129 -82 -207 70 -115 260 -63 260 72 0 91
-86 156 -178 135z m124 -63 c41 -44 44 -80 11 -128 -30 -44 -63 -61 -111 -55
-78 9 -124 89 -91 159 20 42 61 64 116 63 34 -1 47 -8 75 -39z"/>
<path d="M1922 390 c-67 -41 -91 -124 -52 -187 75 -124 264 -76 264 67 0 107
-120 176 -212 120z m152 -44 c48 -44 50 -100 8 -147 -24 -27 -37 -33 -83 -36
-49 -4 -57 -2 -86 26 -29 26 -33 37 -33 78 0 79 34 111 117 112 34 1 48 -5 77
-33z"/>
<path d="M1244 289 c-41 -12 -91 -69 -100 -113 -14 -77 59 -156 145 -156 82 0
141 60 141 142 0 86 -96 152 -186 127z m94 -33 c71 -37 87 -115 36 -175 -41
-50 -134 -51 -178 -3 -22 25 -27 100 -10 134 27 52 97 72 152 44z"/>
</g>
</svg>
