<svg width="37" height="42" viewBox="0 0 37 42" fill="none" xmlns="http://www.w3.org/2000/svg">
<path fill-rule="evenodd" clip-rule="evenodd" d="M19.5709 16.5113C16.3299 15.8126 13.5213 16.3363 11.2966 17.6085L11.2841 17.6114C11.2886 17.6087 11.2927 17.6062 11.2966 17.6039V17.6084C12.1857 17.0993 13.1487 16.7219 14.1535 16.4887C14.1535 16.4887 11.0805 16.6642 8.68877 18.217L8.65815 18.2242C8.62938 18.2413 8.59295 18.2702 8.55009 18.3092C7.58146 18.9676 6.73949 19.8612 6.28255 21.0727C5.7744 19.7814 5.33443 18.466 4.96436 17.1316C8.79865 14.3246 15.824 14.2114 19.5709 16.5113Z" fill="url(#paint0_linear_3122_18507)"/>
<path fill-rule="evenodd" clip-rule="evenodd" d="M11.2967 17.6085C12.1858 17.0994 13.1488 16.722 14.1537 16.4888C14.1537 16.4888 7.86674 16.8479 6.27901 21.0825V21.0976C6.04015 21.8824 6.74737 23.9363 6.74737 23.9363L8.56304 25.8604C7.15016 20.2616 10.8877 17.847 11.2967 17.604V17.6085Z" fill="url(#paint1_linear_3122_18507)"/>
<path fill-rule="evenodd" clip-rule="evenodd" d="M13.7977 8.69855C13.3478 8.21772 12.9512 7.69271 12.6143 7.13208C12.6065 7.75584 12.7391 8.37378 13.0031 8.94302C13.1796 9.33696 13.4113 9.70561 13.6916 10.0386C14.0413 10.1564 14.6283 10.3661 15.22 10.5668L17.1527 11.2399C16.6235 10.9755 16.1175 10.6696 15.6399 10.3254C14.9674 9.84844 14.3498 9.30303 13.7977 8.69855Z" fill="url(#paint2_linear_3122_18507)"/>
<path fill-rule="evenodd" clip-rule="evenodd" d="M10.1069 10.274C9.54486 10.2227 9.17798 10.2136 9.17798 10.2136C9.17798 10.2136 9.34971 10.4068 9.53393 10.6241C9.64009 10.7569 9.74625 10.8957 9.84617 11.0451C10.5425 10.9108 12.7765 10.7826 12.7765 10.7826C11.9083 10.5204 11.0132 10.3499 10.1069 10.274Z" fill="url(#paint3_linear_3122_18507)"/>
<path fill-rule="evenodd" clip-rule="evenodd" d="M5.69202 13.0931C5.69202 13.0931 6.12291 12.9739 6.66464 12.8411C7.15173 12.7234 7.72625 12.5951 8.13997 12.5393C8.13997 12.5393 7.75279 12.4367 7.20325 12.3491C6.57877 12.2526 5.7326 12.1756 5.01758 12.2978C5.28173 12.5293 5.509 12.7973 5.69202 13.0931Z" fill="url(#paint4_linear_3122_18507)"/>
<path d="M23.0523 10.1987H23.0508L23.0523 10.2002V10.1987Z" fill="#270C59"/>
<path d="M19.9674 37.0867C18.7748 36.8751 17.6301 36.4618 16.5859 35.8659C14.6827 34.753 13.1524 33.1328 12.1786 31.1997C7.31861 21.7631 16.1628 14.9464 25.4253 18.8249H25.441C25.441 18.8249 24.1498 19.1267 23.2896 19.7439C25.1428 19.4255 26.8367 19.6564 28.2854 20.0307C28.2854 20.0307 29.141 18.1216 29.3002 17.6236C29.4595 17.1256 29.066 16.1613 28.7741 15.6482C28.7583 15.8926 28.7024 16.133 28.6086 16.3605L26.8913 15.2784C27.3144 13.6667 23.9063 13.7271 23.0414 10.1942C23.0414 10.315 22.9696 12.0233 24.0343 12.8457L23.057 12.316L23.043 12.2798C22.968 12.2527 20.0767 11.1933 18.2033 9.86523C19.4803 11.3638 21.2148 11.7018 21.0134 12.9559L22.7307 14.038C22.8245 13.81 22.8804 13.569 22.8962 13.3241C23.1881 13.8387 23.58 14.8031 23.4208 15.3011C23.2615 15.7991 22.4076 17.7081 22.4076 17.7081C20.9525 17.3339 19.2586 17.1045 17.4117 17.4199C18.2719 16.7996 19.5615 16.5023 19.5615 16.5023C16.3283 15.8036 13.5197 16.3273 11.2872 17.5995V17.5799C10.8781 17.8258 7.14063 20.2435 8.55351 25.8378L10.6674 29.428C11.6041 31.3113 13.974 34.7099 14.9357 35.635C16.6655 37.3086 19.3944 38.9822 19.3944 38.9822" fill="url(#paint5_linear_3122_18507)"/>
<path d="M24.0453 12.8517C22.9806 12.0292 23.0461 10.3209 23.0524 10.2002C22.7995 10.7958 22.773 11.4588 22.9774 12.0715C23.0009 12.1424 23.0274 12.2149 23.0586 12.2888L23.0727 12.325L24.0453 12.8517Z" fill="url(#paint6_linear_3122_18507)"/>
<path d="M15.2386 26.6873V26.6722V26.6601C13.476 22.3833 16.906 16.8509 25.4379 18.8248C16.1753 14.9494 6.68327 21.6936 11.5464 31.1271C12.5201 33.0602 14.561 35.1453 16.4641 36.2582C17.5083 36.8541 18.7279 37.4655 19.9799 37.0867C21.4865 35.8488 22.8983 34.5072 24.2045 33.0724C23.261 33.0604 22.3237 32.9222 21.4194 32.6619C16.8607 31.3369 15.3432 27.0057 15.2386 26.6873Z" fill="url(#paint7_linear_3122_18507)"/>
<path fill-rule="evenodd" clip-rule="evenodd" d="M0.99585 8.10405C1.17944 14.5564 2.89767 20.8812 6.01737 26.5882C9.13707 32.2953 13.5744 37.2312 18.9855 41.0134C24.3956 37.2304 28.8321 32.2943 31.9515 26.5874C35.0708 20.8805 36.7892 14.5561 36.9736 8.10405C33.4052 6.26816 29.5587 4.98972 25.5768 4.31616C28.821 5.90677 32.0215 7.85807 34.2992 9.61318L34.2789 9.915C33.862 15.2803 32.3161 20.5068 29.736 25.2743C27.1559 30.0418 23.596 34.2498 19.2743 37.6406L18.9933 37.8624L18.7123 37.6406C14.3889 34.2498 10.8275 30.0413 8.24628 25.273C5.66509 20.5047 4.11853 15.277 3.7014 9.91047L3.6811 9.60865C5.20786 7.86018 6.98099 6.32756 8.94857 5.05563C6.19371 5.78585 3.53079 6.8082 1.00834 8.10405H0.99585Z" fill="white"/>
<path d="M21.5754 0.718342C21.5754 0.718342 21.4646 2.52929 22.5683 3.37741L21.5926 2.84771C21.5919 2.84371 21.5919 2.83964 21.5926 2.83564C20.1422 2.1837 18.2345 1.07148 17.0355 0C17.0355 0.0618739 17.0277 0.123748 17.0277 0.185622C17.0277 0.123748 17.0277 0.0618739 17.0355 0C17.0355 0 17.9722 2.41459 20.7308 3.27932L18.1127 2.92015C18.1127 2.92015 15.8146 2.35574 13.5993 3.08464C13.5993 3.08464 14.4611 3.05446 16.8122 3.57209C16.8122 3.57209 14.9809 3.7728 14.2737 3.9207C14.1988 3.9207 11.2903 4.03841 9.44493 5.1627L9.45586 5.17176C10.8765 4.86993 12.8218 5.03895 12.8218 5.03895C12.01 5.25023 10.1194 5.96857 10.1194 5.96857V5.95952C10.0116 5.99121 7.63551 6.71408 6.079 8.4224C6.88018 8.08836 7.70439 7.8085 8.54568 7.58484C7.95662 8.00204 7.40274 8.46377 6.88926 8.96568C6.88926 8.96568 5.29684 10.4944 4.02759 13.3014L4.18371 13.6923C4.66924 13.4464 5.17529 13.2404 5.6965 13.0765C5.51332 12.7808 5.28607 12.5129 5.02207 12.2812C6.16642 11.584 7.71825 11.2761 8.75176 11.1403C9.00936 10.9592 9.2732 10.7857 9.54016 10.6182L9.18421 10.2077C9.72535 10.0322 10.2861 9.91923 10.8547 9.87116C11.549 9.51383 12.269 9.20517 13.0091 8.94758C12.7416 8.37764 12.6068 7.75791 12.6142 7.1321C13.2029 7.64481 13.8347 8.10921 14.5032 8.52049C15.3395 8.31919 16.1927 8.18991 17.0526 8.13416C17.0524 8.13768 17.0524 8.14121 17.0526 8.14472C17.0798 8.0412 17.1164 7.9402 17.1619 7.8429C17.1869 7.93948 17.2166 8.03305 17.2447 8.1251C19.5538 8.00834 21.8577 8.43614 23.9578 9.37164H23.9906H23.9797H23.9703C23.8313 9.40484 22.6433 9.70214 21.8346 10.2862C23.6877 9.96774 25.38 10.1986 26.8304 10.5729C26.8304 10.5729 27.6859 8.66386 27.8452 8.15831C28.0044 7.65275 27.611 6.69597 27.319 6.18287C27.3057 6.42721 27.2531 6.66805 27.1629 6.89668L25.4456 5.81313C25.8859 4.03841 22.3654 4.13046 21.5848 0.691177" fill="white"/>
<path fill-rule="evenodd" clip-rule="evenodd" d="M17.0261 0.00463867C17.0261 0.0355759 17.0241 0.0665132 17.0222 0.0974504C17.0202 0.128388 17.0183 0.159324 17.0183 0.190261C17.0183 1.00519 17.3805 1.92273 17.8691 2.61994C17.9456 2.72709 18.0252 2.82971 18.1033 2.92177L20.7214 3.28094C17.9659 2.41169 17.0261 0.00463867 17.0261 0.00463867ZM22.5683 3.37752C21.4646 2.52487 21.5754 0.71845 21.5754 0.71845C21.4231 1.06695 21.3522 1.44361 21.3678 1.82162C21.3779 2.17059 21.4541 2.51482 21.5926 2.83726C21.5924 2.83819 21.5923 2.83913 21.5922 2.84007C21.5922 2.8406 21.5921 2.84113 21.5921 2.84166C21.5921 2.84263 21.5921 2.8436 21.5921 2.84458C21.5922 2.84617 21.5923 2.84775 21.5926 2.84933L22.5683 3.37752ZM6.06494 8.41647C6.87085 8.08389 7.69977 7.80604 8.54568 7.58495C7.95661 8.00215 7.40274 8.46388 6.88925 8.96579C6.66347 8.72205 6.38092 8.53375 6.06494 8.41647ZM12.8093 5.03906C12.8093 5.03906 10.8641 4.86853 9.43868 5.17035C9.69892 5.39922 9.92253 5.6642 10.1022 5.9566V5.96566C10.1022 5.96566 11.9975 5.25034 12.8093 5.03906ZM13.5901 3.08927C13.6066 3.08879 14.4722 3.06362 16.8028 3.57673C16.8028 3.57673 14.9715 3.77744 14.2643 3.9208C14.0577 3.63026 13.8325 3.35254 13.5899 3.08928L13.5901 3.08927Z" fill="url(#paint8_linear_3122_18507)"/>
<path fill-rule="evenodd" clip-rule="evenodd" d="M24.1826 33.169C26.2085 30.9444 27.9696 28.507 29.4329 25.9026L29.3798 25.8452C25.0428 32.1533 16.9184 30.9113 15.2151 26.7748C15.2151 26.7748 16.6686 31.3942 21.3896 32.7691C22.2967 33.0292 23.2365 33.1673 24.1826 33.1795V33.169Z" fill="url(#paint9_linear_3122_18507)"/>
<path fill-rule="evenodd" clip-rule="evenodd" d="M17.159 7.84735C17.0155 8.18477 16.9429 8.54646 16.9456 8.91129C16.9483 9.27611 17.0261 9.63677 17.1746 9.97219L18.1519 10.5004C17.0466 9.64924 17.159 7.84131 17.159 7.84131V7.84735Z" fill="url(#paint10_linear_3122_18507)"/>
<path d="M23.9704 9.37915L23.9667 9.37764H23.961C21.7082 8.89321 19.663 8.96716 17.8817 9.44857C17.8239 9.36255 17.7677 9.27351 17.7131 9.18296L17.6897 9.14222C17.6335 9.05167 17.582 8.95508 17.5336 8.85699C17.5307 8.85176 17.528 8.84647 17.5255 8.84112C17.5222 8.83443 17.5192 8.82764 17.5164 8.82077C17.4061 8.59497 17.3122 8.362 17.2354 8.12356C19.5445 8.00679 21.8484 8.4346 23.9485 9.37009L23.9667 9.37764H23.9704V9.37915Z" fill="url(#paint11_linear_3122_18507)"/>
<path d="M14.5033 8.51744H14.5142C14.803 8.70004 15.0887 8.86755 15.3573 9.02148L15.3698 9.02903L15.682 9.19956H15.6914L15.8381 9.27954L15.8849 9.3052L16.0941 9.41687L16.1878 9.46516L16.3018 9.52553L16.4314 9.59193L16.4922 9.62211L16.6484 9.69757L16.6843 9.71568L16.6872 9.71715C16.7345 9.74074 16.7788 9.76286 16.8217 9.78208C16.906 9.74888 16.9934 9.7187 17.0808 9.68852L17.0808 9.68851C17.0558 9.61155 17.0371 9.5376 17.0199 9.46215L17.0059 9.3882C16.9965 9.33991 16.9872 9.29312 16.9809 9.24634L16.9751 9.20432L16.9751 9.20427C16.9731 9.18996 16.9718 9.18078 16.97 9.16485C16.9669 9.13769 16.9622 9.07732 16.9591 9.03506C16.957 9.0068 16.9577 8.99406 16.9584 8.9815L16.9584 8.98141C16.9587 8.97522 16.9591 8.96907 16.9591 8.96112V8.78606V8.70457V8.61251C16.9591 8.58384 16.9591 8.55516 16.9684 8.528C16.9729 8.51497 16.9731 8.50264 16.9733 8.4905V8.49049C16.9735 8.47732 16.9737 8.46438 16.9793 8.45104C16.9869 8.43328 16.9877 8.41553 16.9886 8.39777L16.9886 8.39774L16.9891 8.38669C16.9894 8.38248 16.9898 8.37828 16.9903 8.37407C16.9927 8.35394 16.9981 8.33288 17.0033 8.31234L17.0033 8.31234L17.0074 8.2956C17.0106 8.2826 17.0134 8.26959 17.0159 8.25679L17.0208 8.2317L17.0231 8.22014C17.0266 8.20191 17.0346 8.17337 17.0416 8.14814L17.042 8.1469L17.048 8.12507C17.0478 8.12155 17.0478 8.11802 17.048 8.1145C16.1891 8.17596 15.3376 8.3108 14.5033 8.51744Z" fill="url(#paint12_linear_3122_18507)"/>
<path d="M10.8439 9.87715L10.8455 9.87701C11.5389 9.52038 12.2578 9.21228 12.9967 8.95508C13.124 9.24129 13.281 9.51431 13.4651 9.77001C13.5322 9.86206 13.6025 9.95412 13.6805 10.0447H13.6696C12.7424 9.85155 11.7902 9.79502 10.8455 9.87701L10.8423 9.87866L10.8439 9.87715Z" fill="url(#paint13_linear_3122_18507)"/>
<path d="M9.85405 11.0452C9.85405 11.0452 9.40287 11.0603 8.74561 11.1463C9.0032 10.9652 9.26704 10.7917 9.54182 10.6242L9.56143 10.6497L9.59195 10.6893C9.67727 10.7999 9.76946 10.9194 9.85405 11.0452Z" fill="url(#paint14_linear_3122_18507)"/>
<defs>
<linearGradient id="paint0_linear_3122_18507" x1="4.59904" y1="17.5451" x2="15.0487" y2="16.2543" gradientUnits="userSpaceOnUse">
<stop stop-color="white"/>
<stop offset="1" stop-color="white" stop-opacity="0"/>
</linearGradient>
<linearGradient id="paint1_linear_3122_18507" x1="6.16036" y1="24.3362" x2="11.1277" y2="18.886" gradientUnits="userSpaceOnUse">
<stop stop-color="white"/>
<stop offset="1" stop-color="white" stop-opacity="0"/>
</linearGradient>
<linearGradient id="paint2_linear_3122_18507" x1="2151.8" y1="605.519" x2="2283.84" y2="605.519" gradientUnits="userSpaceOnUse">
<stop stop-color="white"/>
<stop offset="1" stop-color="white"/>
</linearGradient>
<linearGradient id="paint3_linear_3122_18507" x1="1626.12" y1="139.241" x2="1709.21" y2="139.241" gradientUnits="userSpaceOnUse">
<stop stop-color="white"/>
<stop offset="1" stop-color="white"/>
</linearGradient>
<linearGradient id="paint4_linear_3122_18507" x1="1324.85" y1="156.983" x2="1387.3" y2="156.983" gradientUnits="userSpaceOnUse">
<stop stop-color="white"/>
<stop offset="1" stop-color="white"/>
</linearGradient>
<linearGradient id="paint5_linear_3122_18507" x1="9994.19" y1="4263.27" x2="13786.5" y2="9931.45" gradientUnits="userSpaceOnUse">
<stop stop-color="white"/>
<stop offset="1" stop-color="white"/>
</linearGradient>
<linearGradient id="paint6_linear_3122_18507" x1="23.936" y1="12.2481" x2="22.0859" y2="10.0174" gradientUnits="userSpaceOnUse">
<stop stop-color="white"/>
<stop offset="1" stop-color="white" stop-opacity="0.1"/>
</linearGradient>
<linearGradient id="paint7_linear_3122_18507" x1="16.8341" y1="18.7373" x2="19.3086" y2="27.7892" gradientUnits="userSpaceOnUse">
<stop stop-color="white" stop-opacity="0.1"/>
<stop offset="0.9" stop-color="white"/>
</linearGradient>
<linearGradient id="paint8_linear_3122_18507" x1="14.3166" y1="0.0046389" x2="16.4047" y2="8.3738" gradientUnits="userSpaceOnUse">
<stop stop-color="white"/>
<stop offset="1" stop-color="white" stop-opacity="0"/>
</linearGradient>
<linearGradient id="paint9_linear_3122_18507" x1="18.197" y1="29.4399" x2="25.7648" y2="34.5802" gradientUnits="userSpaceOnUse">
<stop stop-color="white"/>
<stop offset="1" stop-color="white" stop-opacity="0"/>
</linearGradient>
<linearGradient id="paint10_linear_3122_18507" x1="16.9482" y1="9.17084" x2="18.1519" y2="9.17084" gradientUnits="userSpaceOnUse">
<stop offset="0.39" stop-color="white"/>
<stop offset="1" stop-color="white"/>
</linearGradient>
<linearGradient id="paint11_linear_3122_18507" x1="13.8101" y1="4.86838" x2="18.8483" y2="14.2194" gradientUnits="userSpaceOnUse">
<stop stop-color="white"/>
<stop offset="1" stop-color="white" stop-opacity="0"/>
</linearGradient>
<linearGradient id="paint12_linear_3122_18507" x1="13.8101" y1="4.86838" x2="18.8483" y2="14.2194" gradientUnits="userSpaceOnUse">
<stop stop-color="white"/>
<stop offset="1" stop-color="white" stop-opacity="0"/>
</linearGradient>
<linearGradient id="paint13_linear_3122_18507" x1="13.8101" y1="4.86838" x2="18.8483" y2="14.2194" gradientUnits="userSpaceOnUse">
<stop stop-color="white"/>
<stop offset="1" stop-color="white" stop-opacity="0"/>
</linearGradient>
<linearGradient id="paint14_linear_3122_18507" x1="13.8101" y1="4.86838" x2="18.8483" y2="14.2194" gradientUnits="userSpaceOnUse">
<stop stop-color="white"/>
<stop offset="1" stop-color="white" stop-opacity="0"/>
</linearGradient>
</defs>
</svg>
