<?xml version="1.0" standalone="no"?>
<!DOCTYPE svg PUBLIC "-//W3C//DTD SVG 20010904//EN"
 "http://www.w3.org/TR/2001/REC-SVG-20010904/DTD/svg10.dtd">
<svg version="1.0" xmlns="http://www.w3.org/2000/svg"
 width="390.000000pt" height="390.000000pt" viewBox="0 0 390.000000 390.000000"
 preserveAspectRatio="xMidYMid meet">
<metadata>
Created by potrace 1.10, written by Peter Selinger 2001-2011
</metadata>
<g transform="translate(0.000000,390.000000) scale(0.100000,-0.100000)"
fill="#ffffff" stroke="none">
<path d="M2437 3133 c-3 -5 -1 -34 4 -65 14 -91 7 -2020 -8 -2025 -13 -5 -48
29 -223 217 -63 67 -135 144 -160 170 -142 148 -228 239 -340 358 -69 74 -147
157 -175 186 -118 123 -238 250 -345 365 -63 68 -142 151 -175 185 -153 159
-374 394 -489 521 -25 28 -48 58 -52 68 -6 20 -30 23 -35 5 -2 -7 -2 -482 1
-1056 l5 -1042 1450 -3 1450 -2 0 1062 0 1063 -452 0 c-248 0 -454 -3 -456 -7z
m786 -117 c12 -17 24 -41 27 -55 3 -14 3 -426 0 -917 -4 -683 -8 -896 -17
-905 -30 -30 -80 -34 -368 -29 -283 5 -290 5 -300 26 -6 12 -16 28 -23 36 -8
11 -11 235 -12 896 l0 882 22 33 c52 75 19 68 351 65 l299 -3 21 -29z m-2650
-178 c41 -29 228 -218 375 -378 62 -69 184 -199 270 -289 87 -90 195 -205 242
-254 47 -50 113 -119 148 -154 34 -34 62 -65 62 -69 0 -5 37 -42 122 -121 7
-7 36 -38 63 -68 28 -31 74 -79 103 -108 28 -29 52 -57 52 -62 0 -5 26 -34 58
-64 56 -53 116 -143 104 -155 -3 -3 -361 -6 -797 -6 -618 0 -795 3 -807 13
-41 31 -43 74 -40 925 1 446 5 812 8 812 3 0 20 -10 37 -22z"/>
</g>
</svg>
